<?xml version="1.0" encoding="UTF-8" standalone="no"?>
<!-- Created with Inkscape (http://www.inkscape.org/) -->

<svg
   xmlns:dc="http://purl.org/dc/elements/1.1/"
   xmlns:cc="http://creativecommons.org/ns#"
   xmlns:rdf="http://www.w3.org/1999/02/22-rdf-syntax-ns#"
   xmlns:svg="http://www.w3.org/2000/svg"
   xmlns="http://www.w3.org/2000/svg"
   xmlns:sodipodi="http://sodipodi.sourceforge.net/DTD/sodipodi-0.dtd"
   xmlns:inkscape="http://www.inkscape.org/namespaces/inkscape"
   version="1.1"
   id="svg29"
   xml:space="preserve"
   viewBox="0 0 299.99999 202.45594"
   sodipodi:docname="logo.svg"
   inkscape:version="0.92.5 (2060ec1f9f, 2020-04-08)"><metadata
     id="metadata35"><rdf:RDF><cc:Work
         rdf:about=""><dc:format>image/svg+xml</dc:format><dc:type
           rdf:resource="http://purl.org/dc/dcmitype/StillImage" /><dc:title></dc:title></cc:Work></rdf:RDF></metadata><defs
     id="defs33"><clipPath
       clipPathUnits="userSpaceOnUse"
       id="clipPath45"><path
         d="M 0,2000 H 2000 V 0 H 0 Z"
         id="path43"
         inkscape:connector-curvature="0" /></clipPath></defs><sodipodi:namedview
     pagecolor="#ffffff"
     bordercolor="#666666"
     borderopacity="1"
     objecttolerance="10"
     gridtolerance="10"
     guidetolerance="10"
     inkscape:pageopacity="0"
     inkscape:pageshadow="2"
     inkscape:window-width="1918"
     inkscape:window-height="1054"
     id="namedview31"
     showgrid="false"
     fit-margin-top="0"
     fit-margin-left="0"
     fit-margin-right="0"
     fit-margin-bottom="0"
     inkscape:zoom="1.8540339"
     inkscape:cx="250.76151"
     inkscape:cy="67.711176"
     inkscape:window-x="3840"
     inkscape:window-y="0"
     inkscape:window-maximized="0"
     inkscape:current-layer="g37" /><g
     id="g37"
     inkscape:groupmode="layer"
     inkscape:label="Doubleplus Logo"
     transform="matrix(1.3333333,0,0,-1.3333333,-1183.5,1434.561)"><g
       id="g39"
       transform="matrix(0.18461545,0,0,0.18461545,815.48647,815.38439)"><g
         id="g41"
         clip-path="url(#clipPath45)"><g
           id="g47"
           transform="translate(806.7277,1167.817)"><path
             d="m 0,0 c 6.938,-7.826 10.41,-19.005 10.41,-33.539 0,-14.907 -3.472,-26.272 -10.41,-34.098 -6.941,-7.825 -15.536,-11.738 -25.784,-11.738 -10.25,0 -18.866,3.913 -25.853,11.738 -6.987,7.826 -10.481,19.098 -10.481,33.818 0,14.72 3.494,25.993 10.481,33.819 6.987,7.826 15.603,11.738 25.853,11.738 C -15.536,11.738 -6.941,7.826 0,0 m -65.402,34.098 c -11.786,-6.429 -20.89,-15.746 -27.319,-27.95 -6.429,-12.205 -9.644,-24.828 -9.644,-37.871 0,-17.048 3.215,-31.511 9.644,-43.39 6.429,-11.878 15.812,-20.892 28.158,-27.041 12.344,-6.148 25.316,-9.222 38.919,-9.222 21.985,0 40.224,7.382 54.711,22.149 14.485,14.765 21.729,33.375 21.729,55.828 0,22.265 -7.173,40.688 -21.52,55.269 -14.347,14.579 -32.748,21.87 -55.2,21.87 -14.533,0 -27.692,-3.214 -39.478,-9.642"
             style="fill:#263038;fill-opacity:1;fill-rule:nonzero;stroke:none"
             id="path49"
             inkscape:connector-curvature="0" /></g><g
           id="g51"
           transform="translate(1022.4235,1059.7941)"><path
             d="M 0,0 V 148.409 H -39.269 V 85.803 c 0,-21.241 -0.977,-34.587 -2.934,-40.036 -1.956,-5.451 -5.59,-10.016 -10.9,-13.695 -5.311,-3.682 -11.319,-5.521 -18.028,-5.521 -5.869,0 -10.714,1.374 -14.533,4.123 -3.821,2.747 -6.452,6.473 -7.896,11.179 -1.444,4.704 -2.166,17.49 -2.166,38.361 v 68.195 h -39.269 V 54.5 c 0,-13.974 1.769,-24.921 5.312,-32.84 3.539,-7.919 9.268,-14.069 17.188,-18.446 7.918,-4.378 16.862,-6.568 26.831,-6.568 9.782,0 19.076,2.285 27.88,6.847 8.804,4.565 15.907,10.807 21.31,18.726 V 0 Z"
             style="fill:#263038;fill-opacity:1;fill-rule:nonzero;stroke:none"
             id="path53"
             inkscape:connector-curvature="0" /></g><g
           id="g55"
           transform="translate(429.9962,1371.9913)"><path
             d="m 0,0 h 808.846 v -69.019 h 39.248 V 39.247 H -39.246 V -783.23 h 887.34 v 108.267 h -39.248 v -69.02 H 0 Z"
             style="fill:#ff6840;fill-opacity:1;fill-rule:nonzero;stroke:none"
             id="path57"
             inkscape:connector-curvature="0" /></g><g
           id="g59"
           transform="translate(1109.7653,1170.5421)"><path
             d="m 0,0 c 6.239,7.312 14.066,10.97 23.477,10.97 9.594,0 17.469,-3.751 23.616,-11.249 6.15,-7.501 9.224,-19.728 9.224,-36.683 0,-15.931 -3.054,-27.6 -9.153,-35.007 -6.103,-7.406 -13.485,-11.11 -22.149,-11.11 -11.274,0 -20.312,5.216 -27.112,15.652 -4.845,7.358 -7.265,18.726 -7.265,34.097 0,14.905 3.119,26.015 9.362,33.33 m -48.353,94.118 v -204.866 h 36.474 v 21.8 c 5.961,-8.293 13.066,-14.558 21.312,-18.795 8.244,-4.239 16.606,-6.359 25.084,-6.359 17.233,0 31.883,6.847 43.95,20.542 12.063,13.696 18.096,33.212 18.096,58.554 0,24.501 -5.917,43.297 -17.747,56.387 C 66.983,34.469 52.03,41.015 33.957,41.015 17.373,41.015 3.026,34.119 -9.084,20.333 v 73.785 z"
             style="fill:#263038;fill-opacity:1;fill-rule:nonzero;stroke:none"
             id="path61"
             inkscape:connector-curvature="0" /></g><g
           id="g63"
           transform="translate(1355.1554,1172.149)"><path
             d="m 0,0 c 5.59,6.241 12.67,9.363 21.243,9.363 8.01,0 14.813,-2.958 20.403,-8.874 5.589,-5.917 8.523,-14.557 8.804,-25.923 H -8.244 C -8.338,-14.721 -5.589,-6.243 0,0 m 22.78,-115.708 c 16.302,0 29.881,3.748 40.736,11.249 10.852,7.498 18.796,18.421 23.826,32.77 l -39.129,6.567 c -2.145,-7.454 -5.31,-12.856 -9.503,-16.21 -4.191,-3.354 -9.363,-5.031 -15.511,-5.031 -9.038,0 -16.585,3.236 -22.639,9.713 -6.058,6.474 -9.223,15.533 -9.502,27.18 h 98.38 c 0.559,30.092 -5.544,52.427 -18.307,67.008 -12.765,14.579 -30.185,21.87 -52.265,21.87 -19.658,0 -35.914,-6.966 -48.771,-20.892 -12.856,-13.929 -19.284,-33.189 -19.284,-57.785 0,-20.59 4.891,-37.639 14.673,-51.147 12.39,-16.862 31.488,-25.292 57.296,-25.292"
             style="fill:#263038;fill-opacity:1;fill-rule:nonzero;stroke:none"
             id="path65"
             inkscape:connector-curvature="0" /></g><g
           id="g67"
           transform="translate(1013.6066,1015.3576)"><path
             d="M 0,0 V -40.057 H 489.721 L 489.722,0 Z"
             style="fill:#ff6840;fill-opacity:1;fill-rule:nonzero;stroke:none"
             id="path69"
             inkscape:connector-curvature="0" /></g><path
           d="m 1238.844,1056.44 h 39.246 v 208.223 h -39.246 z"
           style="fill:#263038;fill-opacity:1;fill-rule:nonzero;stroke:none"
           id="path71"
           inkscape:connector-curvature="0" /><path
           d="m 1278.048,934.218 h -39.163 V 735.312 h 39.163 z"
           style="fill:#263038;fill-opacity:1;fill-rule:nonzero;stroke:none"
           id="path73"
           inkscape:connector-curvature="0" /><g
           id="g75"
           transform="translate(1110.3214,852.0993)"><path
             d="m 0,0 c 6.335,7.406 14.301,11.109 23.897,11.109 9.223,0 16.955,-3.773 23.197,-11.319 6.241,-7.547 9.364,-19.1 9.364,-34.657 0,-16.678 -3.028,-28.671 -9.084,-35.985 -6.057,-7.315 -13.649,-10.97 -22.778,-10.97 -9.502,0 -17.562,3.983 -24.177,11.948 -6.616,7.966 -9.921,20.286 -9.921,36.963 0,14.535 3.167,25.504 9.502,32.911 m -48.352,38.779 v -204.868 h 39.269 v 74.765 c 7.358,-7.92 14.371,-13.509 21.032,-16.77 6.66,-3.26 14.091,-4.89 22.289,-4.89 17.235,0 31.908,6.869 44.02,20.612 12.109,13.741 18.167,33.002 18.167,57.785 0,24.127 -6.008,42.947 -18.028,56.456 C 66.38,35.377 51.751,42.132 34.518,42.132 24.642,42.132 15.652,39.804 7.547,35.145 -0.558,30.485 -6.986,24.43 -11.738,16.979 v 21.8 z"
             style="fill:#263038;fill-opacity:1;fill-rule:nonzero;stroke:none"
             id="path77"
             inkscape:connector-curvature="0" /></g><g
           id="g79"
           transform="translate(1403.526,824.4631)"><path
             d="m 0,0 c 0,-21.241 -0.977,-34.586 -2.934,-40.037 -1.957,-5.45 -5.59,-10.015 -10.9,-13.695 -5.311,-3.682 -11.32,-5.519 -18.028,-5.519 -5.869,0 -10.714,1.373 -14.533,4.122 -3.821,2.747 -6.452,6.474 -7.896,11.179 -1.445,4.704 -2.166,17.491 -2.166,38.36 v 68.195 h -39.269 v -93.907 c 0,-13.975 1.769,-24.923 5.31,-32.842 3.541,-7.918 9.27,-14.067 17.189,-18.446 7.918,-4.377 16.862,-6.567 26.832,-6.567 9.781,0 19.076,2.284 27.879,6.847 8.804,4.564 15.907,10.806 21.311,18.727 v -22.22 H 39.269 V 62.605 H 0 Z"
             style="fill:#263038;fill-opacity:1;fill-rule:nonzero;stroke:none"
             id="path81"
             inkscape:connector-curvature="0" /></g><g
           id="g83"
           transform="translate(1597.2028,814.2624)"><path
             d="m 0,0 c -8.293,6.893 -22.896,12.716 -43.809,17.468 -20.916,4.75 -33.144,8.43 -36.683,11.039 -2.61,1.957 -3.914,4.333 -3.914,7.127 0,3.261 1.489,5.915 4.472,7.966 4.472,2.887 11.879,4.333 22.22,4.333 8.196,0 14.509,-1.538 18.935,-4.613 4.425,-3.074 7.429,-7.5 9.013,-13.275 L 7.267,36.892 C 3.54,49.84 -3.262,59.623 -13.136,66.239 c -9.876,6.614 -24.968,9.921 -45.277,9.921 -21.335,0 -37.08,-4.38 -47.234,-13.136 -10.155,-8.757 -15.232,-19.563 -15.232,-32.42 0,-14.254 5.869,-25.388 17.608,-33.399 8.476,-5.778 28.553,-12.159 60.23,-19.145 6.799,-1.586 11.18,-3.308 13.136,-5.17 1.862,-1.957 2.795,-4.427 2.795,-7.408 0,-4.379 -1.725,-7.874 -5.171,-10.48 -5.125,-3.728 -12.765,-5.59 -22.918,-5.59 -9.223,0 -16.399,1.978 -21.521,5.94 -5.124,3.959 -8.524,9.756 -10.201,17.397 l -39.407,-6.01 c 3.632,-14.068 11.34,-25.201 23.127,-33.398 11.784,-8.199 27.786,-12.297 48.002,-12.297 22.265,0 39.081,4.89 50.449,14.672 11.364,9.782 17.047,21.473 17.047,35.076 C 12.297,-16.724 8.197,-6.988 0,0"
             style="fill:#263038;fill-opacity:1;fill-rule:nonzero;stroke:none"
             id="path85"
             inkscape:connector-curvature="0" /></g><g
           id="g87"
           transform="translate(628.0773,1098.9933)"><path
             d="m 0,0 c -6.335,-7.687 -14.022,-11.528 -23.058,-11.528 -11.367,0 -20.216,5.121 -26.55,15.371 -4.38,7.079 -6.569,18.538 -6.569,34.377 0,14.719 3.144,25.784 9.433,33.191 6.289,7.406 14.089,11.108 23.408,11.108 9.594,0 17.468,-3.751 23.617,-11.249 C 6.429,63.769 9.503,51.497 9.503,34.448 9.503,19.166 6.335,7.685 0,0 M 48.632,-39.198 V 165.667 H 9.365 V 91.883 c -12.114,13.787 -26.461,20.681 -43.042,20.681 -18.076,0 -33.03,-6.546 -44.858,-19.634 -11.834,-13.091 -17.748,-32.211 -17.748,-57.364 0,-24.597 6.078,-43.766 18.237,-57.506 12.156,-13.743 26.761,-20.613 43.809,-20.613 8.385,0 16.7,2.075 24.945,6.219 8.244,4.145 15.394,10.457 21.45,18.935 v -21.799 z"
             style="fill:#263038;fill-opacity:1;fill-rule:nonzero;stroke:none"
             id="path89"
             inkscape:connector-curvature="0" /></g></g></g></g></svg>
